        <svg xmlns="http://www.w3.org/2000/svg" width="1440" height="910" fill="none" viewBox="0 0 1440 910">
  <path fill="url(#a)" d="M0 0h1440v910H0z"/>
  <mask id="b" width="1440" height="910" x="0" y="0" maskUnits="userSpaceOnUse" style="mask-type:alpha">
    <path fill="#fff" d="M0 0h1440v910H0z"/>
  </mask>
  <g mask="url(#b)">
    <path stroke="#9FFCEB" d="M1014.92 0c-17.512 26.803-52.88 75.202-26.438 114.866 26.438 39.664 219.288 33.515 195.018 156.672-24.27 123.156 272.28 155.748 272.28 155.748v-452.49s-362.53-1.6-390.51 0c-27.97 1.6-32.83-1.6-50.35 25.204Z" clip-rule="evenodd" opacity=".7"/>
    <path stroke="#9FFCEB" stroke-width="2" d="M996.113-6.404c-17.231 26.373-26.011 79.978 0 119.004 26.007 39.026 205.297 30.122 181.417 151.299-23.87 121.176 284.83 102.259 284.83 102.259l-6.58-391.375s-356.61-1.574-384.13 0c-27.52 1.574-58.31-7.56-75.537 18.813Z" clip-rule="evenodd" opacity=".7"/>
    <path stroke="#9FFCEB" d="M947.452-5.948c-20.206 28.916-61.006 81.127-30.503 123.915 30.503 42.789 273.811 56.744 245.811 189.603-28 132.859 299.6 128.586 299.6 128.586L1456-33.137s-418.19-1.726-450.47 0c-32.267 1.725-37.871-1.726-58.078 27.19Z" clip-rule="evenodd" opacity=".3"/>
    <path stroke="#9FFCEB" d="M371.106 935.216c1.769-31.971 8.199-91.569-34.533-112.698-42.731-21.128-206.67 80.622-247.226-38.172-40.556-118.794-313.672 1.255-313.672 1.255L1.92 1177.47s314.757-179.879 338.184-195.251c23.428-15.373 29.234-15.032 31.002-47.003Z" clip-rule="evenodd" opacity=".7"/>
    <path stroke="#9FFCEB" stroke-width="2" d="M390.6 931.356c1.736-31.455-17.463-82.268-59.502-103.06-42.039-20.793-192.856 76.563-232.765-40.318-39.91-116.88-297.796 53.854-297.796 53.854L1.927 1177.48s309.616-176.94 332.661-192.062c23.045-15.122 54.276-22.607 56.012-54.062Z" clip-rule="evenodd" opacity=".7"/>
    <path stroke="#9FFCEB" d="M432.513 906.631c3.042-35.144 12.27-100.761-35.541-122.565-47.81-21.804-265.498 87.764-307.677-41.296-42.18-129.06-323.756 38.442-323.756 38.442L5.693 1184.45s363.03-207.601 390.115-225.231c27.085-17.63 33.664-17.443 36.705-52.588Z" clip-rule="evenodd" opacity=".3"/>
  </g>
  <defs>
    <linearGradient id="a" x1="928.422" x2="1998.73" y1="1500.76" y2="-181.298" gradientUnits="userSpaceOnUse">
      <stop stop-color="#6E4FC6"/>
      <stop offset="1" stop-color="#896FD1"/>
    </linearGradient>
  </defs>
</svg>